<?xml version="1.0" encoding="UTF-8" standalone="no"?><!DOCTYPE svg PUBLIC "-//W3C//DTD SVG 1.1//EN" "http://www.w3.org/Graphics/SVG/1.1/DTD/svg11.dtd"><svg width="100%" height="100%" viewBox="0 0 10 10" version="1.1" xmlns="http://www.w3.org/2000/svg" xmlns:xlink="http://www.w3.org/1999/xlink" xml:space="preserve" xmlns:serif="http://www.serif.com/" style="fill-rule:evenodd;clip-rule:evenodd;stroke-linejoin:round;stroke-miterlimit:1.41421;"><rect id="star" x="0" y="0" width="10" height="10" style="fill:none;"/><path d="M5,0.914c0.622,0 1.009,3.106 1.009,3.106c0,0 3.073,-0.596 3.266,0c0.192,0.591 -2.642,1.92 -2.642,1.92c0,0 1.516,2.738 1.009,3.106c-0.503,0.365 -2.642,-1.92 -2.642,-1.92c0,0 -2.135,2.288 -2.642,1.92c-0.503,-0.365 1.009,-3.106 1.009,-3.106c0,0 -2.836,-1.324 -2.642,-1.92c0.192,-0.591 3.266,0 3.266,0c0,0 0.382,-3.106 1.009,-3.106Z"/></svg>