<?xml version="1.0" encoding="UTF-8" standalone="no"?><!DOCTYPE svg PUBLIC "-//W3C//DTD SVG 1.1//EN" "http://www.w3.org/Graphics/SVG/1.1/DTD/svg11.dtd"><svg width="100%" height="100%" viewBox="0 0 1024 1024" version="1.1" xmlns="http://www.w3.org/2000/svg" xmlns:xlink="http://www.w3.org/1999/xlink" xml:space="preserve" xmlns:serif="http://www.serif.com/" style="fill-rule:evenodd;clip-rule:evenodd;stroke-linecap:round;stroke-linejoin:round;stroke-miterlimit:1.5;"><rect id="thaime-logo" x="0" y="0" width="1024" height="1024" style="fill:none;"/><clipPath id="_clip1"><rect x="0" y="0" width="1024" height="1024"/></clipPath><g clip-path="url(#_clip1)"><path d="M1024,179.649c0,-99.151 -80.498,-179.649 -179.649,-179.649l-664.702,0c-99.151,0 -179.649,80.498 -179.649,179.649l0,664.702c0,99.151 80.498,179.649 179.649,179.649l664.702,0c99.151,0 179.649,-80.498 179.649,-179.649l0,-664.702Z" style="fill:#5a4c30;"/><circle cx="512" cy="512" r="415.5" style="fill:#f9f6f1;stroke:#ae8b61;stroke-width:45px;"/><path d="M512,862.5l0,65" style="fill:#5a4c30;stroke:#ae8b61;stroke-width:25px;"/><path d="M512,96.5l0,65" style="fill:#5a4c30;stroke:#ae8b61;stroke-width:25px;"/><path d="M161.5,512l-65,0" style="fill:#5a4c30;stroke:#ae8b61;stroke-width:25px;"/><path d="M927.5,512l-65,0" style="fill:#5a4c30;stroke:#ae8b61;stroke-width:25px;"/><path d="M521.761,529.881c13.221,-7.595 16.489,-17.209 9.805,-28.845c-6.684,-11.635 -16.637,-13.655 -29.857,-6.06c-13.22,7.595 -16.488,17.21 -9.804,28.845c6.684,11.635 16.636,13.655 29.856,6.06Zm314.007,-199.457c-6.817,9.996 -15.183,17.842 -25.098,23.538c-15.581,8.951 -32.258,11.623 -50.029,8.015c8.625,21.573 8.58,36.798 -0.136,45.674c-4.25,2.441 -12.91,-1.703 -25.981,-12.432c-16.637,-13.655 -27.443,-20.988 -32.419,-21.998c21.962,38.23 26.569,61.006 13.821,68.329c-2.833,1.628 -11.143,-3.546 -24.93,-15.522c-15.215,-13.367 -26.26,-21.115 -33.135,-23.245c20.561,42.351 23.288,67.865 8.179,76.545c-2.833,1.627 -11.501,-4.17 -26.005,-17.392c-18.546,-16.98 -30.546,-26.39 -35.999,-28.231c45.595,79.367 33.217,139.258 -37.133,179.673c-29.274,16.817 -57.541,21.174 -84.804,13.07c-27.262,-8.103 -49.606,-27.322 -67.032,-57.657c-17.904,-31.165 -24.431,-59.47 -19.582,-84.916c4.849,-25.445 20.494,-45.763 46.934,-60.952c21.247,-12.206 41.291,-16.121 60.131,-11.746c18.841,4.375 33.991,16.536 45.449,36.481c10.265,17.868 14.845,35.133 13.741,51.795c-1.321,20.655 -11.425,36.408 -30.311,47.257c-10.387,5.968 -21.327,7.693 -32.82,5.176c-11.494,-2.516 -19.866,-8.345 -25.118,-17.487c-5.49,-9.557 -6.486,-19.763 -2.987,-30.615c3.499,-10.853 10.678,-19.399 21.537,-25.637c12.276,-7.053 24.815,-8.729 37.615,-5.029l-0.716,-1.247l-7.177,-15.773c-12.917,-27.95 -34.957,-32.975 -66.119,-15.073c-19.358,11.121 -30.053,26.937 -32.085,47.448c-2.032,20.511 4.232,43.44 18.794,68.788c13.129,22.855 30.125,37.409 50.987,43.662c20.862,6.254 41.444,3.549 61.746,-8.114c27.857,-16.003 44.089,-37.211 48.697,-63.623c4.608,-26.412 -2.517,-56.032 -21.376,-88.859c-7.4,-12.882 -13.718,-22.24 -18.954,-28.075c29.066,-10.619 59.424,1.233 91.073,35.556c-2.674,-14.492 -7.233,-27.347 -13.678,-38.567c-4.536,-7.895 -12.154,-16.783 -22.854,-26.664c22.695,-6.405 50.313,1.77 82.853,24.527c-3.607,-11.744 -6.843,-20.11 -9.707,-25.096c-2.149,-3.74 -7.745,-10.75 -16.79,-21.028c23.167,-6.677 48.302,2.096 75.404,26.318c1.619,-8.114 -0.198,-16.742 -5.45,-25.884c-2.865,-4.986 -6.795,-10.189 -11.793,-15.609c2.6,-0.94 16.093,-0.954 40.48,-0.042c22.021,1.166 41.766,-3.268 59.236,-13.304l3.541,-2.035Z" style="fill:#79d2d2;fill-rule:nonzero;"/><circle cx="322" cy="291" r="65" style="fill:#fff;"/><circle cx="715.297" cy="750.781" r="32.5" style="fill:#fff;"/><circle cx="383.932" cy="314.073" r="32.5" style="fill:#fff;"/></g></svg>