<?xml version="1.0" encoding="UTF-8" standalone="no"?><!DOCTYPE svg PUBLIC "-//W3C//DTD SVG 1.1//EN" "http://www.w3.org/Graphics/SVG/1.1/DTD/svg11.dtd"><svg width="100%" height="100%" viewBox="0 0 232 232" version="1.1" xmlns="http://www.w3.org/2000/svg" xmlns:xlink="http://www.w3.org/1999/xlink" xml:space="preserve" xmlns:serif="http://www.serif.com/" style="fill-rule:evenodd;clip-rule:evenodd;stroke-linejoin:round;stroke-miterlimit:1.41421;"><path d="M56,232l-56,0l0,-56l56,0l0,56Zm88,0l-8,0l0,-8l8,0l0,8Zm-16,-40l16,0l0,8l-8,0l0,16l-8,0l0,16l-16,0l0,-8l8,0l0,-8l-8,0l0,8l-8,0l0,8l-8,0l0,-16l8,0l0,-8l-8,0l0,-8l24,0l0,-8l-8,0l0,-8l8,0l0,-8l8,0l0,16Zm88,8l16,0l0,8l-8,0l0,16l-8,0l0,-8l-8,0l0,8l8,0l0,8l-48,0l0,-8l-8,0l0,8l-8,0l0,-8l8,0l0,-8l16,0l0,-8l24,0l0,-8l8,0l0,-8l8,0l0,8Zm-144,-24l8,0l0,8l8,0l0,-8l16,0l0,8l-8,0l0,16l-16,0l0,32l-16,0l0,-40l8,0l0,-8l-8,0l0,-16l8,0l0,8Zm120,40l-16,0l0,8l16,0l0,-8Zm-184,-32l0,40l40,0l0,-40l-40,0Zm32,32l-24,0l0,-24l24,0l0,24Zm192,-40l-16,0l0,8l-16,0l0,16l-24,0l0,8l-32,0l0,-8l16,0l0,-16l-24,0l0,-8l16,0l0,-8l8,0l0,-8l40,0l0,8l8,0l0,-8l8,0l0,-8l8,0l0,8l8,0l0,16Zm-104,24l-8,0l0,8l8,0l0,-8Zm40,-32l0,24l24,0l0,-24l-24,0Zm56,24l-8,0l0,-8l8,0l0,8Zm-40,-8l-8,0l0,-8l8,0l0,8Zm-96,-8l-8,0l0,-8l8,0l0,8Zm32,-32l8,0l0,16l16,0l0,8l-8,0l0,8l-8,0l0,-8l-16,0l0,-8l8,0l0,-8l-8,0l0,8l-8,0l0,8l-8,0l0,-16l8,0l0,-8l-8,0l0,-8l24,0l0,8Zm-64,24l-16,0l0,-8l16,0l0,8Zm-48,0l-8,0l0,-40l8,0l0,40Zm16,0l-8,0l0,-16l8,0l0,16Zm16,-8l-8,0l0,-16l-8,0l0,-8l16,0l0,24Zm48,-56l-8,0l0,8l24,0l0,8l-8,0l0,16l-8,0l0,24l-16,0l0,-8l8,0l0,-16l-32,0l0,-8l32,0l0,-8l-8,0l0,-16l-8,0l0,16l-24,0l0,-8l16,0l0,-8l8,0l0,-8l24,0l0,8Zm128,48l-8,0l0,-16l-8,0l0,-8l16,0l0,24Zm-144,0l-24,0l0,-8l24,0l0,8Zm104,-16l24,0l0,16l-8,0l0,-8l-8,0l0,8l-8,0l0,-8l-24,0l0,8l-8,0l0,-16l24,0l0,-8l8,0l0,8Zm56,8l-8,0l0,-8l8,0l0,8Zm-88,-8l-8,0l0,-8l8,0l0,8Zm80,-8l-8,0l0,-8l8,0l0,8Zm-88,0l-8,0l0,-8l8,0l0,-8l8,0l0,-8l16,0l0,8l-8,0l0,16l-8,0l0,-8l-8,0l0,8Zm-16,0l-8,0l0,-8l8,0l0,8Zm80,-16l16,0l0,8l-16,0l0,8l-8,0l0,-8l-8,0l0,-8l-16,0l0,8l-8,0l0,-8l8,0l0,-8l32,0l0,8Zm-160,-40l8,0l0,8l-16,0l0,-8l-24,0l0,16l24,0l0,8l-16,0l0,8l8,0l0,8l-8,0l0,16l-8,0l0,-16l-8,0l0,-48l40,0l0,8Zm-8,48l8,0l0,8l-16,0l0,-16l8,0l0,8Zm96,0l-8,0l0,-8l8,0l0,8Zm8,-8l-8,0l0,-8l8,0l0,8Zm96,0l-8,0l0,-8l8,0l0,8Zm-192,-8l-8,0l0,-8l8,0l0,8Zm80,-24l8,0l0,-8l8,0l0,16l-24,0l0,8l-8,0l0,8l-8,0l0,-16l8,0l0,-8l-8,0l0,-8l24,0l0,8Zm8,24l-16,0l0,-8l16,0l0,8Zm16,0l-8,0l0,-8l8,0l0,8Zm32,-32l8,0l0,-8l8,0l0,8l8,0l0,16l-24,0l0,-8l-8,0l0,24l-8,0l0,-24l8,0l0,-16l8,0l0,8Zm-120,32l-8,0l0,-8l8,0l0,8Zm152,-8l8,0l0,8l-16,0l0,-16l8,0l0,8Zm16,0l-8,0l0,-8l8,0l0,8Zm-120,-40l-8,0l0,-8l-8,0l0,8l8,0l0,16l-8,0l0,-8l-8,0l0,8l-16,0l0,16l-16,0l0,-8l8,0l0,-8l-8,0l0,-8l24,0l0,-8l8,0l0,-8l8,0l0,-8l16,0l0,16Zm-16,32l-8,0l0,-16l8,0l0,16Zm56,-16l-8,0l0,-8l8,0l0,-16l-8,0l0,16l-8,0l0,-16l-8,0l0,16l-8,0l0,-16l8,0l0,-8l8,0l0,-8l8,0l0,8l16,0l0,16l8,0l0,-8l8,0l0,16l-8,0l0,16l-16,0l0,-8l8,0l0,-8l-8,0l0,8Zm88,8l-8,0l0,-8l8,0l0,8Zm-8,-8l-8,0l0,-8l8,0l0,8Zm-16,0l-8,0l0,-8l8,0l0,8Zm-120,-40l-8,0l0,16l-8,0l0,8l-8,0l0,-16l8,0l0,-8l-8,0l0,-8l24,0l0,8Zm144,24l-56,0l0,-56l56,0l0,56Zm-176,0l-56,0l0,-56l56,0l0,56Zm128,-48l0,40l40,0l0,-40l-40,0Zm-176,0l0,40l40,0l0,-40l-40,0Zm160,32l-16,0l0,-8l16,0l0,8Zm48,0l-24,0l0,-24l24,0l0,24Zm-176,0l-24,0l0,-24l24,0l0,24Zm72,-32l8,0l0,-8l8,0l0,8l8,0l0,16l-16,0l0,-8l-8,0l0,8l-8,0l0,8l-8,0l0,-16l8,0l0,-8l-8,0l0,-8l16,0l0,8Zm32,24l-8,0l0,-8l8,0l0,8Zm-24,0l-8,0l0,-8l8,0l0,8Zm48,-8l-16,0l0,-8l16,0l0,8Zm0,-16l-16,0l0,8l-8,0l0,-8l-8,0l0,-8l32,0l0,8Zm-96,8l-8,0l0,-8l8,0l0,8Zm16,0l-8,0l0,-16l8,0l0,16Z"/></svg>