<?xml version="1.0" encoding="UTF-8" standalone="no"?><!DOCTYPE svg PUBLIC "-//W3C//DTD SVG 1.1//EN" "http://www.w3.org/Graphics/SVG/1.1/DTD/svg11.dtd"><svg width="100%" height="100%" viewBox="0 0 22 22" version="1.1" xmlns="http://www.w3.org/2000/svg" xmlns:xlink="http://www.w3.org/1999/xlink" xml:space="preserve" xmlns:serif="http://www.serif.com/" style="fill-rule:evenodd;clip-rule:evenodd;stroke-linejoin:round;stroke-miterlimit:1.41421;"><path d="M0,11c0,4.86 3.151,8.983 7.523,10.437c0.55,0.101 0.75,-0.239 0.75,-0.529c0,-0.262 -0.01,-1.129 -0.015,-2.047c-3.059,0.664 -3.705,-1.298 -3.705,-1.298c-0.501,-1.27 -1.222,-1.608 -1.222,-1.608c-1,-0.682 0.076,-0.669 0.076,-0.669c1.105,0.077 1.686,1.133 1.686,1.133c0.982,1.682 2.576,1.196 3.201,0.914c0.1,-0.71 0.385,-1.196 0.699,-1.47c-2.442,-0.277 -5.011,-1.221 -5.011,-5.436c0,-1.202 0.429,-2.182 1.131,-2.952c-0.112,-0.28 -0.49,-1.399 0.109,-2.913c0,0 0.923,-0.295 3.025,1.128c0.897,-0.245 1.823,-0.369 2.753,-0.37c0.93,0.001 1.857,0.126 2.754,0.371c2.099,-1.424 3.023,-1.128 3.023,-1.128c0.601,1.516 0.223,2.634 0.11,2.912c0.705,0.77 1.13,1.75 1.13,2.952c0,4.225 -2.572,5.156 -5.023,5.428c0.396,0.342 0.747,1.01 0.747,2.036c0,1.47 -0.015,2.656 -0.015,3.019c0,0.292 0.2,0.635 0.757,0.527c4.368,-1.457 7.517,-5.579 7.517,-10.437c0,-6.075 -4.925,-11 -11,-11c-6.075,0 -11,4.925 -11,11Z"/></svg>