<?xml version="1.0" encoding="UTF-8" standalone="no"?><!DOCTYPE svg PUBLIC "-//W3C//DTD SVG 1.1//EN" "http://www.w3.org/Graphics/SVG/1.1/DTD/svg11.dtd"><svg width="100%" height="100%" viewBox="0 0 24 24" version="1.1" xmlns="http://www.w3.org/2000/svg" xmlns:xlink="http://www.w3.org/1999/xlink" xml:space="preserve" xmlns:serif="http://www.serif.com/" style="fill-rule:evenodd;clip-rule:evenodd;stroke-linejoin:round;stroke-miterlimit:1.41421;"><path id="Rectangle-path" d="M24,0l0,24l-24,0l0,-24l24,0Zm-4.092,18.215l0,-0.271l-1.257,-1.234c-0.111,-0.084 -0.166,-0.223 -0.143,-0.361l0,-9.067c-0.023,-0.138 0.032,-0.277 0.143,-0.362l1.287,-1.234l0,-0.271l-4.456,0l-3.176,7.924l-3.613,-7.924l-4.674,0l0,0.271l1.505,1.814c0.148,0.133 0.223,0.329 0.203,0.527l0,7.126c0.044,0.257 -0.037,0.519 -0.218,0.707l-1.694,2.054l0,0.271l4.803,0l0,-0.271l-1.694,-2.054c-0.182,-0.187 -0.268,-0.448 -0.233,-0.707l0,-6.163l4.215,9.195l0.489,0l3.621,-9.195l0,7.329c0,0.196 0,0.233 -0.128,0.361l-1.302,1.264l0,0.271l6.322,0Z"/></svg>