<?xml version="1.0" encoding="UTF-8" standalone="no"?>
<!DOCTYPE svg PUBLIC "-//W3C//DTD SVG 1.1//EN" "http://www.w3.org/Graphics/SVG/1.1/DTD/svg11.dtd">
<svg width="100%" height="100%" viewBox="0 0 100 100" version="1.1" xmlns="http://www.w3.org/2000/svg" xmlns:xlink="http://www.w3.org/1999/xlink" xml:space="preserve" xmlns:serif="http://www.serif.com/" style="fill-rule:evenodd;clip-rule:evenodd;stroke-linejoin:round;stroke-miterlimit:1.41421;">
  <path d="M100,17.544c0,-9.683 -7.861,-17.544 -17.544,-17.544l-64.912,0c-9.683,0 -17.544,7.861 -17.544,17.544l0,64.912c0,9.683 7.861,17.544 17.544,17.544l64.912,0c9.683,0 17.544,-7.861 17.544,-17.544l0,-64.912Z" style="fill:#54009d;"/>
  <path d="M30.363,52.927c2.276,0 3.415,-1.138 3.415,-3.415c0,-2.277 -1.139,-3.415 -3.415,-3.415c-2.277,0 -3.416,1.138 -3.416,3.415c0,2.277 1.139,3.415 3.416,3.415Zm55.496,-2.805c-1.626,0.894 -3.293,1.341 -5.001,1.341c-2.683,0 -5.041,-1.016 -7.074,-3.049c-0.488,3.903 -1.626,6.139 -3.415,6.709c-0.732,0 -1.545,-1.342 -2.44,-4.025c-1.138,-3.416 -1.992,-5.408 -2.561,-5.977c0,7.481 -1.098,11.221 -3.293,11.221c-0.488,0 -1.179,-1.463 -2.074,-4.391c-0.975,-3.252 -1.829,-5.326 -2.561,-6.22c-0.488,7.969 -2.033,11.953 -4.635,11.953c-0.488,0 -1.179,-1.586 -2.073,-4.757c-1.139,-4.066 -1.993,-6.464 -2.562,-7.196c0,15.531 -6.058,23.296 -18.173,23.296c-5.042,0 -9.026,-1.748 -11.953,-5.245c-2.928,-3.496 -4.391,-8.212 -4.391,-14.148c0,-6.099 1.26,-10.815 3.781,-14.149c2.52,-3.334 6.058,-5 10.611,-5c3.659,0 6.546,1.118 8.66,3.354c2.114,2.236 3.171,5.305 3.171,9.208c0,3.497 -0.691,6.424 -2.073,8.782c-1.708,2.928 -4.188,4.391 -7.44,4.391c-1.789,0 -3.334,-0.671 -4.635,-2.012c-1.301,-1.342 -1.952,-2.907 -1.952,-4.696c0,-1.87 0.63,-3.456 1.891,-4.757c1.26,-1.301 2.825,-1.951 4.696,-1.951c2.114,0 3.862,0.813 5.244,2.439l0,-0.244l0.244,-2.927c0.407,-5.204 -2.073,-7.806 -7.44,-7.806c-3.334,0 -5.895,1.423 -7.684,4.269c-1.789,2.846 -2.683,6.749 -2.683,11.709c0,4.472 1.118,8.05 3.354,10.733c2.236,2.683 5.102,4.025 8.599,4.025c4.797,0 8.477,-1.748 11.038,-5.245c2.561,-3.496 3.842,-8.456 3.842,-14.88c0,-2.521 -0.122,-4.431 -0.366,-5.733c4.554,0.895 7.603,5.205 9.148,12.929c0.732,-2.358 1.098,-4.635 1.098,-6.83c0,-1.545 -0.326,-3.497 -0.976,-5.855c3.415,0.976 6.383,4.513 8.904,10.612c0.406,-2.033 0.61,-3.537 0.61,-4.513c0,-0.732 -0.204,-2.236 -0.61,-4.513c3.496,0.976 6.098,4.391 7.806,10.246c0.813,-1.058 1.219,-2.481 1.219,-4.269c0,-0.976 -0.122,-2.074 -0.365,-3.294c0.406,0.082 2.154,1.22 5.244,3.416c2.765,2.032 5.652,3.049 8.66,3.049l0.61,0Z" style="fill:#fff;fill-rule:nonzero;"/>
</svg>
