<?xml version="1.0" encoding="UTF-8" standalone="no"?>
<svg width="25px" height="25px" viewBox="0 0 25 25" version="1.1" xmlns="http://www.w3.org/2000/svg" xmlns:xlink="http://www.w3.org/1999/xlink">
    <path d="M24,5.2126 C23.15383,5.58796 22.244295,5.841535 21.28991,5.955615 C22.264075,5.371645 23.01238,4.44693 23.364625,3.345 C22.45279,3.885845 21.442975,4.278455 20.36807,4.490055 C19.50741,3.57293 18.28105,3 16.92382,3 C14.31792,3 12.205025,5.112665 12.205025,7.718565 C12.205025,8.088405 12.24677,8.448585 12.327155,8.79393 C8.405425,8.597165 4.928515,6.718525 2.601145,3.86365 C2.194965,4.56055 1.962205,5.37107 1.962205,6.23587 C1.962205,7.87301 2.795265,9.317295 4.061415,10.163465 C3.287925,10.13897 2.56032,9.92668 1.92414,9.573285 C1.92368,9.59295 1.92368,9.61273 1.92368,9.632625 C1.92368,11.918825 3.55024,13.825985 5.708905,14.259535 C5.31296,14.367405 4.896085,14.42502 4.465755,14.42502 C4.161695,14.42502 3.866145,14.39535 3.577955,14.34038 C4.178485,16.214995 5.92108,17.579355 7.98602,17.617305 C6.371075,18.882995 4.336495,19.63728 2.12562,19.63728 C1.74474,19.63728 1.36915,19.61497 1,19.57127 C3.088285,20.910215 5.568605,21.691525 8.233385,21.691525 C16.91278,21.691525 21.659175,14.501265 21.659175,8.26562 C21.659175,8.061035 21.654575,7.8576 21.64549,7.655085 C22.567445,6.989925 23.367385,6.15882 24,5.2126 L24,5.2126 Z"></path>
</svg>
